<svg xmlns="http://www.w3.org/2000/svg" viewBox="0 0 768 768"><path fill="currentColor" fill-rule="evenodd" d="M403 85c-19.7 2.5-27.5 7.3-29 18-4.8 34.6-4.3 41.8 3.2 49.6l4 4.2-1.6 10.8c-1.7 11.3-4 20.7-9.6 38l-3.2 10.3-3.7.6c-15.3 2.6-20.8 13.3-20 39.4.7 20.6 6.4 27.4 43.9 52.3 38.6 25.6 47.5 36.8 63.5 80.3 13.7 37 29.8 55 64.4 71.9 47.1 23.1 113.9 26.4 152.6 7.4 17.4-8.5 23-19.5 20.6-41a37 37 0 0 0-11.7-25.7l-5.6-6-.2-9.3c-.3-14.3-8.4-29.5-23.7-44.7-22.5-22.4-35-32.3-47.1-37.3l-5.8-2.3V297c0-8.3-1.7-11.4-13.8-26.3L563.5 250c-5.6-7.1-8.3-8.8-17-10.3l-6-1.1-4.7-14c-6.7-20-11.6-50.5-8.1-50.5 3 0 5-7.6 5.7-21 1.6-33 1.8-31.9-9-39.6C498 94.4 438.6 80.6 403 85m1.5 8c-19.4 2.2-25 6.1-19 13 18.6 20.4 107 36 136.8 24.1 6.5-2.6 3.6-7-9.8-14.6-27.6-15.7-77.6-26.1-108-22.5m-25.4 33.5c-1.3 15.4-1 17 5.6 22.4 16.9 14 57.2 24 95.5 24.1 10.3 0 10.8 0 11.3-2.2a267 267 0 0 0 2.5-25.1v-3.4l-14.7-.6c-35.4-1.5-76.8-12.6-93.8-25.1l-4-2.9q-1.2-.7-2.4 12.8M524 138c-2 1-10 2.8-16.6 3.6l-5 .6-1.7 16.2c-3 28.6-.9 48.5 8.4 76.3l3 9.1 7.7-1.8c4.2-1 9-1.9 10.6-1.9q3.3.2 2-1.7a173 173 0 0 1-13.4-60.3c0-6 .3-6.8 2.9-9 2.6-2.4 3-3.4 3.6-11 1-12.7.4-21-1.5-20m-136.4 29.4c-1 8.4-4 20.8-8.6 35.3-7 22-8.5 35.2-5.9 51.2l1.1 6.8 9.1 6.1c5 3.4 9.2 6 9.4 5.8.2-.1-.2-5-.8-10.7-1.8-17.4-.2-32 7.7-70.7 2.5-12.3 4.4-22.5 4.2-22.6s-3.7-1.9-8-3.8l-7.6-3.6zm19.3 26.5c-4.8 24.3-4.8 24.1.1 24.1 11.9 0 51 17.2 72.2 31.7l8 5.5 8.9-4.4c6.6-3.2 8.7-4.7 8.2-5.8A249 249 0 0 1 492 192l-1.2-10.6-17.7-.6c-21.7-.8-49.4-5-60.3-9.2-1-.4-2.4 4.9-5.9 22.4m200.7.2c-2.2 3.2-1.2 4.3 8.8 9.9 41 22.7 74.9 66 84 107.1.7 3.2 3 4.3 5.7 2.9 2.4-1.3 2.4-2.3 0-11.8-10.3-40-43.2-80.7-84-104-12-7-12.4-7-14.5-4m-247.1 31.5c-10 5.2-9.9 11.7.2 23.1l3.8 4.4v-14.6c0-8-.2-14.6-.5-14.6s-1.9.8-3.5 1.7m40.1 1.6c-2.2 8.4-1.3 45.8 1.3 50.3.3.7 4.8 4 9.9 7.4 10.3 6.9 19.6 15 25.3 22.3l3.8 4.7 4-8.4c7-14.9 17.7-29 29.1-38.3 3.3-2.6 6-5 6-5.3a203 203 0 0 0-70.6-33.5c-8-2-8-2-8.8.8m206.6-.1c-2.5 2.5-1.2 4.8 5 9 32 21.5 55.3 53.4 63.7 87.3 2.7 10.8 10 10.6 8-.3-6-32.4-33.2-70.5-66.5-93-6.5-4.4-8.3-5-10.2-3M200 237c-16.3 2-29.9 8.2-34.1 15.5-2 3.4-4.9 29.3-4.9 43.7 0 11.1 1.7 14.8 11 23.8l6.6 6.5-1.2 8a240 240 0 0 1-9.3 37.5l-3.7 11.5-7 1.8c-22.3 5.8-28 15.1-27.9 46.2.1 26.1 5.1 33.3 46 66.2 32.4 26 43 40 65.8 86.3 18 36.6 30.7 52.4 54.4 67.6 56.7 36.3 174 43.2 234 13.8 16.7-8.2 23-16.6 24-32.2 1.4-22.4-4.1-33.5-23.2-46.4-6.1-4-6.4-4.5-6.5-8.4a48 48 0 0 0-13.4-33.3c-8-9.5-28.9-30.1-30.5-30.1a51 51 0 0 1-9.2-7.2 130 130 0 0 0-42.6-27.3l-5-1.6-.5-7.5c-.6-8.5-2.3-11.7-16.9-31.9-14.1-19.5-17-21.3-34.6-22.2l-10.2-.6-5-8a271 271 0 0 1-27.2-61.2l-2-7.8 2.5-5.1c2.5-5 2.6-5.6 2.6-24.6 0-10.7-.5-21.3-1-23.4-6-26.3-83.1-55.4-131-49.6m3.4 8c-22 1.8-34 8.8-29.9 17.4 12.8 27 100 48.1 138.7 33.6 11.5-4.3 13-7.5 7-14.1-20-22.3-76.2-40.1-115.8-36.9m321.7 3.5a109 109 0 0 0-75 61.7c-4 9.7-4 9 2 20.8l5 10 3.5-6.8c16.6-32.8 57.8-55.4 101.6-55.6 7.6 0 13.8-.2 13.8-.3l-8.2-10.6-11.6-14.5c-5-6.3-15.9-8-31-4.7M351 257.1c0 15.3 8 23.8 42.5 45.8 35.4 22.6 46.9 37.1 63.5 80.6 8 20.8 12 28.8 19.5 38.3 31.7 40.1 110.5 60.9 171.1 45.1q33.6-8.6 33.4-30.4V433l-5.3 4c-32.5 24.6-104.7 24.5-154.2-.1-33.7-16.8-46.5-31.5-63.4-73-17.3-42.5-27.4-56.9-51-72.2l-21.6-14.1c-15-9.7-22.1-15.2-29-22.3l-5.5-5.6zm-181 17.6-1 13.8c-1 14.2 0 17.6 7.5 25C194.6 331 229.7 342 268 342c23.5 0 21.3 2.4 22.2-25.2l.3-7.7-16.5-.5c-40-1-81.1-14.5-99.7-32.5-3.7-3.6-4.3-3.8-4.3-1.4m381 14c-28.7 21.7-54 70.8-56.5 109.8l-.7 10 3.3 3.2c1.9 1.8 7.4 5.9 12.4 9.2l9 6 1.7-10.2a239 239 0 0 1 55.7-111c3.7-3.9 6-7.1 5.5-7.6-12.3-11.2-23.5-14.6-30.4-9.4m30 .3q5.1 4.5 5 2.2c0-1.4-3.3-4-6-4.6-2.3-.6-2.2-.4 1 2.4m-49 1.2c-3.3 1-3.4 1-1.5 2.4 2.5 1.9 2.8 1.8 5.5-1.1 2.6-2.7 1.8-3-4-1.3m-20.8 7.9c-23 10.6-39.6 27.3-46.6 46.7l-2.6 7.3 4.6 11.7c7 17.8 17 36.2 19.5 36.2.5 0 .9-2 .9-4.4 0-22.1 15.5-61.6 34.1-86.7l6-8.1-2.3-2.5c-4-4.3-4.8-4.3-13.6-.2M319 301.6a61 61 0 0 1-12.2 4.1l-7.7 1.7-.6 5.6c-3.3 31.6-1.2 45.4 12.4 79.5 3.6 9 14 31.6 15.4 33.2 0 .1 4.2-1 9.2-2.6a139 139 0 0 1 13.1-3.6l4.1-.6-5-8.7c-11-19-19-36.9-24.8-54.7-4.6-14.6-5-18.6-1.6-22.5 2.6-3.1 2.6-3.4 2.6-18.6 0-8.5-.1-15.3-.2-15.3zm262.2 9.6c-8.3 8.8-25.2 32.2-24 33.4.2.2 2.4-.3 4.8-1.1 15.3-5.4 38.7-9.5 54.4-9.5 5.8 0 10.5-.4 10.5-.9 0-3.1-21.5-18.5-32.3-23-9.4-3.9-8.5-4-13.4 1.1m-395.8 23.6c-2 12-5.2 24.8-10.4 41.2-7.7 24.2-9 30.8-9.8 47.1-.8 20.2-1.1 19.5 11.5 29.4a187 187 0 0 0 11.2 8.5c.3 0 .5-8.9.5-19.8.1-23.6 1.3-31.4 11.4-72.7l6.8-28-10-4.7c-5.5-2.7-10.1-4.8-10.3-4.8s-.6 1.7-1 3.8m415 7.7a289 289 0 0 0-43.4 10.7l-6.5 2.4-5.7 11.5c-5 10-16.6 41.5-15.6 42.4a35 35 0 0 0 6.8-5.1c35.3-30 74.2-46.6 106.3-45.1 5.3.2 9.7.2 9.7 0 0-1.2-12.4-15.4-14.2-16.4-3.3-1.8-26-2-37.4-.4M209 364a285 285 0 0 0-4.9 21.4c.2.2 4.2 1 8.9 2 29.7 6.3 53.3 18.1 90.6 45.4l2.9 2.2 6.3-3 6.2-3-3.9-7.8a310 310 0 0 1-22.5-59.1l-3.3-12.5-19.4.2c-20.4.3-31.4-.9-46.8-4.8l-8.4-2c-.2 0-2.8 9.5-5.7 21m435 10c5.8 4 12.5 8.8 14.9 10.8l4.4 3.6-.5-5.8c-.9-10.6-6.3-14.8-20.2-15.4l-9.1-.4zm-32-3.4a184 184 0 0 0-60.5 31.3c-19.7 15-28.3 25.5-24 29 4.5 3.9 32.3 12.2 48.7 14.7 50.4 7.6 110.6-10.3 101.2-30.1-4.7-10-36-36.2-55.9-46.7a35 35 0 0 0-9.5 1.8m-458.6 24q-26.1 9.3-1.1 37l4.4 4.8.7-13.5c.3-7.4 1.3-16.3 2-19.9 2.5-11 2.3-11.3-6-8.4m48.1.6a193 193 0 0 0-5.3 54.3l.5 18.4 2.9 2.2a213 213 0 0 1 26.8 28.2l4.9 6.8 3-5.3a172 172 0 0 1 54-54l9.6-6.5-2.2-2a224 224 0 0 0-80.6-41.2c-13.8-3.4-13-3.4-13.6-.9M137 433.6c0 18.7 6.8 28.2 37.8 53.1 38.6 31 47.1 41.6 70.7 88.2 23.6 46.8 36.5 61.6 67.4 77 51.4 25.9 144.7 31.5 199.6 12 25-8.8 33.5-17 33.5-32.2v-6.9l-4.7 4.2c-36.5 32.1-149.9 35.9-216.2 7.1-36.1-15.7-52-33.4-80.5-90-20.7-41-31.5-55.2-57.2-75-29-22.4-40.7-32.9-47.3-42l-3.1-4.4zm219.5-7.6c-43.5 6.8-96 42.8-117 80.4l-3.6 6.4 6.2 11.4c7.4 13.4 6.9 12.8 8.3 10.4 25.3-41.5 93.5-78.6 144.8-78.9h12.6l-5.1-7.4c-8.8-12.7-14-18.7-18.1-20.7-4.5-2.2-18.7-3-28.1-1.6M86.6 436.6c-2.6 6.8 3.7 33.5 12 50.4 12.3 25.4 44.2 60.8 52.9 58.6q7-1.8-4.2-10.7c-29.5-22.9-50-58-53-90.4-.3-3.9-1-7.6-1.6-8.2-1.4-1.8-5.4-1.6-6 .3m-25.2 15c-2 2-1.4 8.4 2 22.1a174 174 0 0 0 81.2 105c9.2 5.2 12.8 5.4 12.8.9 0-2.6-1-3.5-8.8-8-42.2-24.4-73.5-68-79.9-111.6q-2-13.8-7.3-8.4m319.6 12.6-7.4 1-10.2 10.2c-28.5 28.4-57.8 90.8-61.1 130.4l-.7 7.9 7.4 4.7c7.8 5 19.9 11 24.1 12.1 2.5.6 2.6.5 3.3-5.7 4.4-39.5 39-112.4 66.9-141.4l7.1-7.4-10-6.5a67 67 0 0 0-11-6.4zm25.8.6c4 3.2 8.1 5.4 8.1 4.3 0-1.6-3.8-5.1-5.4-5.1a13 13 0 0 1-3.3-.6q-2-.6.6 1.4m-67.3 10.8C309 486.6 272 515 258 538.2c-5.1 8.5-5.3 6.9 2.4 21.5 11.2 21.3 21 35.8 30.4 44.7l3 2.8.6-3.8c6.3-41.6 24.1-83 53-123 2.2-3-3.4-6.4-8-4.8m66 17c-3.7 4.4-10 12.8-14 18.9-9.5 14.6-9.2 14-7 13a256 256 0 0 1 64.8-11.4l15.8-.6-7.6-6c-14.2-11.1-30.9-19.8-40.8-21.1l-4.4-.6zm27.5 29.5c-15 1.7-53.7 10.8-55.4 13a351 351 0 0 0-25.2 57.9c-.6 2.4-.5 2.3 3.7-1.1 35-28.7 87.7-49.3 126.1-49.4H498l-9.8-9.8c-7.7-7.7-10.7-10-13.8-10.7-4.8-1.2-31.1-1-41.4.1m36 28.6a73 73 0 0 0 11.7 6.8c6.4 3.3 16.8 9 23.2 12.7 12.7 7.3 12.8 7.3 11.2-.5-3-14.4-12.4-19.7-34.8-19.7-6.2 0-11.3.3-11.3.8m-22.5 4.2a277 277 0 0 0-92 48.2l-7 5.7-1.8 8.9c-3 15.4-2.7 16.8 3.6 18.6 67.8 19.7 157 12.8 188-14.5 10.8-9.4 6.5-17-18.5-33.2-16.5-10.7-61.8-35.8-64.4-35.6-.5 0-4 .9-8 2"/></svg>
