<svg version="1.1" xmlns="http://www.w3.org/2000/svg" width="200" height="200">
<path d="M0,0 L13,0 L23,5 L29,14 L31,21 L31,36 L28,47 L24,54 L24,61 L29,66 L50,75 L57,80 L61,86 L66,109 L69,127 L70,144 L66,145 L64,137 L57,96 L54,86 L53,83 L48,81 L39,77 L25,71 L20,66 L18,63 L18,53 L24,38 L24,20 L20,12 L20,10 L16,8 L10,6 L2,6 L-6,10 L-10,16 L-12,22 L-12,37 L-6,53 L-5,55 L-6,64 L-12,71 L-24,76 L-36,81 L-41,85 L-44,94 L-50,130 L-53,147 L-56,147 L-56,126 L-50,92 L-46,82 L-39,76 L-27,71 L-17,67 L-13,65 L-11,59 L-12,52 L-17,42 L-19,33 L-19,24 L-17,15 L-12,7 L-4,1 Z " fill="#000000" transform="translate(93,22)"/>
<path d="M0,0 L5,1 L13,8 L17,16 L19,29 L21,21 L23,21 L30,35 L31,38 L31,53 L27,60 L19,67 L11,70 L11,66 L14,62 L14,52 L11,55 L7,53 L4,47 L3,43 L-1,51 L-2,60 L1,66 L1,69 L-7,67 L-15,61 L-18,56 L-19,51 L-19,40 L-13,28 L-6,17 L-3,20 L-3,22 L-1,22 L1,12 L1,5 Z M6,9 L4,20 L0,28 L-3,32 L-3,34 L-5,34 L-5,29 L-7,28 L-12,36 L-14,41 L-14,54 L-8,63 L-5,64 L-6,53 L-2,43 L5,35 L8,35 L8,46 L9,48 L16,48 L18,52 L18,62 L22,60 L26,53 L26,38 L24,32 L19,37 L18,39 L16,39 L13,18 L10,12 L8,9 Z " fill="#000000" transform="translate(93,99)"/>
</svg>
