<svg version="1.1" xmlns="http://www.w3.org/2000/svg" width="200" height="200">
<path d="M0,0 L22,0 L36,3 L48,7 L63,16 L73,24 L78,29 L83,35 L81,36 L73,29 L60,20 L43,12 L30,8 L13,6 L-1,7 L-20,12 L-33,18 L-46,26 L-57,35 L-61,38 L-60,34 L-53,26 L-39,15 L-24,7 L-6,1 Z " fill="#000000" transform="translate(89,49)"/>
<path d="M0,0 L10,0 L26,2 L43,7 L60,16 L72,25 L80,33 L82,38 L73,48 L62,58 L49,66 L38,71 L25,75 L7,77 L-12,75 L-25,71 L-41,63 L-54,54 L-67,41 L-68,37 L-61,29 L-54,22 L-41,13 L-24,5 L-9,1 Z M0,7 L-9,11 L-13,14 L-13,16 L-15,16 L-21,28 L-22,37 L-19,47 L-13,55 L-5,60 L3,62 L11,62 L21,59 L30,52 L35,42 L36,35 L34,24 L28,15 L22,10 L14,7 Z M-17,9 L-30,14 L-43,21 L-56,32 L-62,39 L-52,49 L-39,58 L-25,65 L-9,70 L-2,71 L15,71 L31,68 L46,62 L57,55 L71,43 L75,38 L73,34 L60,23 L45,14 L33,10 L30,11 L37,19 L39,24 L40,30 L40,40 L36,51 L31,58 L21,64 L16,66 L-2,66 L-10,63 L-18,57 L-24,48 L-26,36 L-24,23 L-18,14 L-15,9 Z " fill="#000000" transform="translate(93,64)"/>
<path d="M0,0 L5,0 L6,1 L6,9 L13,9 L15,10 L14,15 L6,15 L6,36 L5,38 L0,37 L-1,16 L-9,15 L-10,11 L-9,9 L0,9 Z " fill="#000000" transform="translate(97,80)"/>
</svg>
