<svg version="1.1" xmlns="http://www.w3.org/2000/svg" width="200" height="200">
<path d="M0,0 L3,0 L10,12 L16,23 L29,45 L35,55 L35,57 L40,54 L46,48 L50,49 L58,60 L69,78 L76,88 L87,106 L88,110 L87,112 L84,111 L73,95 L63,79 L53,64 L48,57 L48,55 L46,55 L44,59 L37,66 L33,64 L24,49 L15,34 L7,20 L4,14 L4,12 L2,12 L1,24 L-1,31 L3,32 L6,39 L3,45 L-3,50 L-2,54 L8,60 L12,66 L11,73 L1,79 L-10,84 L-11,91 L-7,93 L9,98 L25,104 L34,110 L37,114 L38,117 L38,124 L35,132 L28,140 L19,148 L18,150 L18,156 L22,161 L22,164 L41,157 L56,148 L61,144 L64,145 L54,153 L39,161 L23,166 L19,166 L19,163 L15,161 L12,156 L13,147 L21,139 L28,133 L32,127 L32,116 L31,113 L27,111 L17,106 L-6,98 L-14,93 L-16,91 L-17,85 L-22,88 L-24,91 L-23,96 L-14,102 L0,107 L7,111 L9,114 L9,120 L3,127 L-7,132 L-34,140 L-53,147 L-58,146 L-58,144 L-43,137 L-12,128 L-2,124 L1,121 L3,121 L4,117 L3,113 L-2,111 L-21,104 L-28,98 L-29,96 L-29,90 L-24,84 L-12,78 L1,73 L6,69 L5,63 L1,61 L-6,57 L-8,54 L-7,49 L-1,42 L0,37 L-2,36 L-7,35 L-6,26 L-4,18 L-10,27 L-16,38 L-28,57 L-34,67 L-38,65 L-45,56 L-47,55 L-49,60 L-65,86 L-76,103 L-84,113 L-86,113 L-87,109 L-74,88 L-64,71 L-54,56 L-48,46 L-44,48 L-39,53 L-35,55 L-23,36 L-15,23 L-5,7 Z " fill="#000000" transform="translate(99,29)"/>
</svg>
