<svg version="1.1" xmlns="http://www.w3.org/2000/svg" width="200" height="200">
<path d="M0,0 L15,0 L23,3 L31,9 L37,16 L40,24 L40,39 L36,49 L29,57 L23,61 L14,64 L0,64 L-10,60 L-15,56 L-21,48 L-25,37 L-25,27 L-22,18 L-16,9 L-8,3 Z M3,5 L-8,9 L-16,16 L-20,24 L-21,28 L-21,35 L-18,44 L-15,47 L-18,34 L-17,25 L-13,17 L-8,12 L-8,14 L-10,14 L-15,21 L-17,28 L-17,36 L-14,47 L-8,54 L3,59 L12,59 L20,56 L26,52 L32,45 L35,37 L35,28 L32,19 L24,10 L14,5 Z " fill="#000000" transform="translate(104,34)"/>
<path d="M0,0 L5,0 L5,9 L14,9 L15,13 L8,15 L6,15 L6,33 L4,37 L0,36 L0,15 L-9,14 L-10,10 L-9,9 L0,9 Z " fill="#000000" transform="translate(109,48)"/>
<path d="M0,0 L8,0 L11,3 L18,4 L22,8 L22,15 L13,25 L1,35 L-17,48 L-33,57 L-37,59 L-54,59 L-76,56 L-90,56 L-109,66 L-113,65 L-111,61 L-98,53 L-91,50 L-75,50 L-53,53 L-38,53 L-27,47 L-11,37 L0,28 L13,17 L16,14 L16,9 L11,8 L-5,17 L-15,23 L-18,23 L-19,30 L-24,34 L-34,36 L-68,36 L-67,33 L-48,31 L-29,30 L-24,28 L-26,23 L-31,21 L-56,20 L-75,15 L-90,15 L-100,19 L-115,28 L-127,34 L-132,35 L-131,30 L-113,20 L-102,13 L-95,10 L-90,9 L-73,9 L-56,14 L-50,15 L-31,15 L-20,7 L-12,2 L-4,2 Z M5,3 L-1,5 L-16,15 L-19,15 L-13,11 L-6,5 L-8,4 L-16,8 L-24,13 L-28,15 L-27,17 L-23,17 L-21,21 L-16,19 L6,6 L7,3 Z M-19,22 Z " fill="#000000" transform="translate(157,96)"/>
</svg>
