<svg version="1.1" xmlns="http://www.w3.org/2000/svg" width="200" height="200">
<path d="M0,0 L11,0 L18,4 L22,9 L24,14 L24,27 L20,36 L15,41 L13,42 L6,42 L5,38 L12,36 L16,30 L18,24 L18,15 L15,9 L11,6 L2,6 L-4,9 L-8,15 L-8,28 L-7,36 L-11,35 L-14,29 L-14,15 L-10,7 L-3,1 Z " fill="#000000" transform="translate(58,31)"/>
<path d="M0,0 L9,0 L15,3 L21,10 L22,14 L22,22 L19,28 L13,33 L11,33 L10,30 L15,25 L16,22 L16,13 L14,8 L9,6 L0,6 L-5,11 L-6,14 L-6,25 L-2,29 L4,32 L3,35 L-4,35 L-11,29 L-13,19 L-10,8 L-5,2 Z " fill="#000000" transform="translate(147,70)"/>
<path d="M0,0 L12,0 L24,6 L29,12 L37,28 L42,38 L54,36 L64,34 L73,34 L78,37 L79,44 L74,50 L56,58 L42,63 L33,63 L27,59 L19,49 L11,34 L11,32 L15,34 L25,47 L31,55 L34,57 L44,56 L64,49 L73,44 L74,39 L60,41 L44,44 L40,43 L35,38 L25,17 L18,9 L9,5 L0,6 L-6,10 L-11,19 L-14,33 L-18,78 L-19,82 L-21,82 L-22,80 L-22,50 L-20,31 L-16,15 L-10,6 L-3,1 Z " fill="#000000" transform="translate(44,74)"/>
<path d="M0,0 L9,1 L15,5 L20,11 L24,23 L25,35 L25,51 L21,52 L20,50 L18,26 L15,15 L11,9 L5,6 L-5,6 L-11,9 L-17,18 L-19,36 L-22,79 L-25,78 L-26,66 L-26,38 L-23,19 L-20,11 L-14,4 L-7,1 Z " fill="#000000" transform="translate(153,109)"/>
</svg>
