<svg version="1.1" xmlns="http://www.w3.org/2000/svg" width="200" height="200">
<path d="M0,0 L8,1 L16,8 L18,15 L18,23 L14,31 L8,35 L-3,35 L-9,31 L-12,25 L-12,11 L-7,3 Z M1,5 L-5,8 L-8,15 L-7,25 L-3,30 L-1,31 L6,31 L11,27 L13,21 L12,12 L8,7 Z " fill="#000000" transform="translate(97,30)"/>
<path d="M0,0 L8,0 L14,5 L16,9 L16,20 L12,26 L7,29 L-2,28 L-7,23 L-9,19 L-9,9 L-6,3 Z M4,4 L-2,6 L-4,9 L-4,20 L0,24 L5,25 L10,22 L12,17 L11,9 L8,5 Z " fill="#000000" transform="translate(49,42)"/>
<path d="M0,0 L8,0 L14,4 L17,9 L17,19 L13,26 L8,29 L1,29 L-6,25 L-8,20 L-8,9 L-5,3 Z M3,4 L-2,6 L-4,11 L-4,18 L-1,23 L4,25 L10,22 L12,18 L12,10 L8,5 Z " fill="#000000" transform="translate(142,42)"/>
<path d="M0,0 L17,0 L27,3 L33,7 L38,15 L42,33 L45,50 L46,66 L43,74 L40,76 L34,76 L32,75 L33,81 L34,97 L34,110 L33,119 L30,119 L28,107 L26,64 L25,49 L25,36 L28,36 L30,44 L32,66 L33,70 L38,71 L40,67 L39,50 L33,19 L29,11 L22,7 L17,6 L0,6 L-10,9 L-13,10 L-15,15 L-20,37 L-23,60 L-22,70 L-16,70 L-13,42 L-10,35 L-8,36 L-10,79 L-11,110 L-12,118 L-14,119 L-17,116 L-16,75 L-23,76 L-27,72 L-28,69 L-28,51 L-23,20 L-19,10 L-12,4 L-5,1 Z " fill="#000000" transform="translate(91,69)"/>
<path d="M0,0 L17,0 L22,2 L23,5 L2,5 L-7,8 L-11,14 L-16,39 L-17,46 L-17,56 L-13,58 L-11,58 L-8,34 L-7,30 L-5,30 L-5,47 L-8,91 L-11,91 L-12,89 L-12,71 L-11,62 L-16,63 L-22,58 L-22,42 L-18,18 L-14,7 L-9,3 Z " fill="#000000" transform="translate(45,75)"/>
<path d="M0,0 L18,0 L28,5 L32,12 L36,30 L38,46 L38,55 L35,61 L33,62 L27,62 L28,69 L28,91 L25,92 L23,82 L20,30 L23,30 L26,46 L27,56 L31,57 L33,52 L30,30 L26,13 L23,8 L15,5 L1,5 L-6,6 L-6,2 Z " fill="#000000" transform="translate(138,75)"/>
</svg>
