<svg version="1.1" xmlns="http://www.w3.org/2000/svg" width="200" height="200">
<path d="M0,0 L7,1 L13,5 L14,7 L14,19 L9,24 L3,24 L8,18 L8,9 L5,6 L0,6 L-3,11 L-2,20 L1,22 L1,24 L-6,22 L-8,19 L-8,7 L-4,2 Z " fill="#000000" transform="translate(96,22)"/>
<path d="M0,0 L9,1 L17,6 L21,14 L25,27 L28,44 L28,55 L26,66 L21,67 L18,62 L16,53 L17,74 L17,87 L15,97 L12,105 L12,111 L14,114 L13,118 L10,119 L4,115 L1,111 L-1,129 L-6,133 L-13,133 L-16,132 L-17,130 L-20,92 L-22,76 L-23,62 L-27,61 L-32,50 L-35,42 L-34,33 L-27,12 L-23,6 L-13,1 L-9,1 L-10,4 L-18,9 L-21,12 L-29,36 L-29,44 L-24,55 L-24,58 L-22,58 L-22,37 L-20,28 L-18,27 L-18,57 L-14,96 L-12,114 L-12,128 L-6,127 L-5,102 L-4,96 L-3,71 L0,71 L3,83 L3,90 L2,100 L4,108 L6,108 L7,102 L11,91 L12,79 L11,68 L11,27 L14,28 L18,42 L21,56 L21,61 L23,61 L23,43 L19,26 L14,11 L7,5 L-2,2 Z " fill="#000000" transform="translate(102,49)"/>
</svg>
