<svg version="1.1" xmlns="http://www.w3.org/2000/svg" width="200" height="200">
<path d="M0,0 L4,1 L8,9 L13,14 L19,19 L19,21 L21,21 L26,29 L26,32 L33,26 L38,24 L45,25 L53,31 L53,34 L46,37 L42,46 L38,57 L33,62 L25,67 L8,70 L3,74 L-1,80 L-7,81 L-17,76 L-18,73 L-23,68 L-22,65 L-10,62 L3,55 L-1,51 L-10,48 L-18,41 L-24,30 L-28,21 L-30,14 L-29,9 L-15,17 L-5,21 L-2,22 L-3,19 L-3,11 Z M1,6 L2,15 L3,17 L1,17 L1,15 L-1,15 L1,23 L13,27 L21,34 L24,36 L25,33 L20,25 L6,12 L3,6 Z M-26,15 L-25,20 L-17,27 L-20,27 L-22,27 L-21,31 L-19,31 L-19,33 L-11,38 L-14,38 L-14,42 L-6,47 L3,50 L9,52 L9,55 L5,57 L-5,63 L-18,67 L-17,70 L-14,72 L-14,75 L-7,75 L-7,78 L-3,78 L1,72 L2,69 L6,67 L8,66 L19,65 L28,61 L34,56 L38,47 L42,36 L46,32 L44,28 L37,27 L29,34 L26,37 L21,37 L16,31 L7,27 L-11,23 L-20,19 Z " fill="#000000" transform="translate(94,30)"/>
<path d="M0,0 L5,2 L8,5 L8,8 L14,9 L18,13 L20,17 L25,20 L29,29 L33,45 L35,51 L50,59 L57,69 L60,78 L61,84 L61,104 L58,104 L57,101 L55,79 L50,67 L45,62 L31,54 L21,45 L13,38 L7,37 L11,45 L22,60 L24,64 L23,67 L14,56 L2,39 L-4,16 L-8,9 L-11,8 L-9,21 L-5,41 L3,60 L3,62 L6,63 L6,65 L10,67 L17,73 L24,78 L24,80 L28,82 L32,87 L34,92 L34,104 L32,104 L30,99 L28,90 L20,81 L10,73 L0,64 L-4,56 L-11,38 L-15,16 L-15,9 L-12,5 L-4,6 L-3,1 Z M-1,4 L-1,12 L2,23 L4,33 L11,33 L10,25 L6,9 L3,4 Z M10,12 L14,35 L19,37 L20,39 L21,37 L17,19 L14,13 Z M21,22 L23,41 L29,48 L31,48 L28,38 L25,26 Z " fill="#000000" transform="translate(35,74)"/>
<path d="M0,0 L5,0 L7,2 L8,6 L11,4 L16,5 L17,6 L17,16 L15,32 L11,44 L4,62 L0,67 L-14,78 L-25,88 L-29,103 L-31,103 L-31,90 L-27,83 L-23,81 L-23,79 L-9,68 L-5,64 L-3,64 L-1,60 L2,55 L8,39 L11,27 L13,8 L8,13 L5,22 L2,34 L-2,42 L-14,59 L-19,65 L-22,64 L-15,53 L-6,40 L-5,37 L-12,38 L-16,42 L-18,42 L-20,46 L-28,53 L-42,61 L-46,63 L-48,67 L-52,78 L-55,104 L-57,104 L-58,96 L-58,84 L-56,72 L-52,64 L-47,59 L-42,55 L-32,50 L-29,41 L-28,28 L-22,19 L-17,18 L-15,11 L-11,8 L-6,8 L-4,3 Z M0,3 L-3,8 L-8,30 L-8,32 L-2,33 L0,28 L3,14 L4,10 L4,3 Z M-9,11 L-13,15 L-16,26 L-17,36 L-11,34 L-9,25 L-7,12 Z M-20,22 L-24,28 L-27,42 L-28,47 L-24,45 L-23,42 L-21,42 L-19,34 L-18,22 Z " fill="#000000" transform="translate(164,75)"/>
</svg>
