<svg version="1.1" xmlns="http://www.w3.org/2000/svg" width="200" height="200">
<path d="M0,0 L12,0 L23,4 L29,8 L38,17 L41,20 L48,11 L56,4 L67,0 L81,0 L91,4 L97,9 L104,19 L106,24 L107,34 L105,47 L101,57 L94,68 L90,70 L88,67 L95,55 L99,43 L100,30 L96,19 L91,14 L87,10 L78,7 L70,7 L61,9 L52,16 L45,24 L42,28 L37,27 L29,17 L19,10 L13,8 L1,8 L-9,13 L-13,15 L-15,20 L-18,26 L-19,31 L-18,44 L-14,56 L-7,67 L4,79 L16,91 L24,98 L39,112 L43,111 L48,106 L51,106 L50,111 L43,118 L38,118 L27,110 L27,108 L25,108 L25,106 L21,104 L9,93 L1,86 L-9,76 L-17,65 L-24,51 L-27,37 L-26,25 L-20,13 L-10,4 Z " fill="#000000" transform="translate(59,44)"/>
<path d="M0,0 L3,1 L13,20 L19,32 L21,39 L20,50 L17,55 L12,60 L4,63 L-3,63 L-13,58 L-13,56 L-15,56 L-18,50 L-18,35 L-14,24 L-4,6 Z M0,9 L-10,27 L-13,34 L-14,45 L-10,53 L-7,56 L-4,57 L6,57 L12,53 L15,48 L15,36 L11,26 L1,9 Z " fill="#000000" transform="translate(133,104)"/>
</svg>
