<svg version="1.1" xmlns="http://www.w3.org/2000/svg" width="200" height="200">
<path d="M0,0 L10,0 L22,3 L31,8 L39,17 L43,25 L44,29 L44,47 L41,57 L36,68 L36,80 L38,85 L37,91 L32,94 L24,94 L19,89 L17,85 L16,73 L19,61 L25,49 L26,45 L26,35 L23,27 L17,22 L7,19 L-2,20 L-10,25 L-14,31 L-15,34 L-15,50 L-10,70 L-9,81 L-9,168 L-10,170 L-14,168 L-15,123 L-15,85 L-17,65 L-21,49 L-21,34 L-17,25 L-12,19 L-6,15 L6,13 L16,15 L24,20 L29,26 L32,33 L32,47 L27,60 L23,70 L22,78 L25,88 L29,89 L31,88 L30,81 L29,71 L32,62 L37,51 L38,45 L38,30 L32,18 L24,11 L16,8 L12,7 L-3,7 L-13,11 L-20,17 L-25,25 L-28,37 L-28,46 L-24,64 L-22,73 L-21,88 L-21,165 L-22,167 L-25,167 L-26,165 L-27,84 L-29,69 L-34,50 L-35,43 L-34,30 L-28,18 L-19,8 L-9,2 Z " fill="#000000" transform="translate(97,26)"/>
</svg>
