<svg version="1.1" xmlns="http://www.w3.org/2000/svg" width="200" height="200">
<path d="M0,0 L18,0 L35,4 L51,12 L61,20 L61,22 L65,24 L73,34 L81,50 L85,66 L85,88 L82,102 L77,114 L65,130 L54,140 L44,146 L31,151 L23,153 L4,154 L-9,152 L-22,148 L-34,142 L-44,134 L-52,126 L-61,112 L-66,100 L-69,84 L-69,68 L-66,53 L-60,40 L-53,29 L-45,21 L-34,12 L-17,4 Z M4,6 L-4,10 L-12,17 L-19,28 L-21,33 L-16,35 L-3,37 L-3,40 L-20,37 L-23,37 L-28,57 L-29,63 L-29,75 L-4,75 L-4,79 L-30,79 L-27,103 L-23,116 L-21,117 L-2,114 L-2,117 L-19,120 L-19,124 L-13,135 L-6,143 L0,147 L6,148 L7,128 L10,128 L11,147 L17,147 L23,143 L31,134 L37,123 L36,120 L21,117 L18,117 L18,114 L39,117 L42,109 L44,100 L46,79 L19,78 L20,76 L45,75 L45,63 L42,45 L39,38 L37,37 L19,40 L19,36 L36,34 L37,30 L29,18 L23,11 L16,7 L11,6 L10,11 L10,28 L7,28 L7,8 L6,6 Z M26,8 L32,15 L40,29 L43,32 L56,27 L57,24 L44,15 L34,10 Z M-13,9 L-25,14 L-37,22 L-39,26 L-27,32 L-25,32 L-16,16 L-9,10 Z M-44,28 L-54,41 L-60,54 L-63,69 L-63,75 L-34,75 L-33,70 L-31,53 L-27,38 L-27,35 L-36,31 L-42,28 Z M59,29 L44,35 L43,38 L47,53 L49,74 L50,75 L79,75 L80,73 L77,55 L73,46 L66,34 L62,29 Z M-63,79 L-62,92 L-57,107 L-49,120 L-44,125 L-39,124 L-27,118 L-28,113 L-32,96 L-33,80 L-34,79 Z M78,78 L50,79 L47,102 L44,115 L45,119 L59,125 L63,123 L70,113 L75,103 L79,89 L80,79 Z M42,122 L36,133 L29,142 L27,143 L28,145 L38,142 L53,133 L57,128 L46,123 Z M-28,123 L-37,127 L-39,128 L-37,132 L-27,139 L-12,145 L-11,143 L-12,141 L-14,141 L-16,137 L-22,127 L-24,123 Z " fill="#000000" transform="translate(91,23)"/>
<path d="M0,0 L8,0 L9,3 L9,21 L30,21 L30,28 L29,29 L9,30 L9,84 L8,85 L0,85 L0,29 L-21,29 L-22,26 L-21,21 L-1,20 Z " fill="#000000" transform="translate(95,58)"/>
</svg>
