<svg xmlns="http://www.w3.org/2000/svg" width="200" height="200" viewBox="0 0 200 200">
<circle cx="100" cy="100" r="38" fill="none" stroke="#000000" stroke-width="8" stroke-linecap="round" stroke-linejoin="round"/>
<path d="M100 24 L100 48" fill="none" stroke="#000000" stroke-width="8" stroke-linecap="round"/>
<path d="M100 152 L100 176" fill="none" stroke="#000000" stroke-width="8" stroke-linecap="round"/>
<path d="M24 100 L48 100" fill="none" stroke="#000000" stroke-width="8" stroke-linecap="round"/>
<path d="M152 100 L176 100" fill="none" stroke="#000000" stroke-width="8" stroke-linecap="round"/>
<path d="M46 46 L62 62" fill="none" stroke="#000000" stroke-width="8" stroke-linecap="round"/>
<path d="M138 138 L154 154" fill="none" stroke="#000000" stroke-width="8" stroke-linecap="round"/>
<path d="M46 154 L62 138" fill="none" stroke="#000000" stroke-width="8" stroke-linecap="round"/>
<path d="M138 62 L154 46" fill="none" stroke="#000000" stroke-width="8" stroke-linecap="round"/>
<path d="M71 30 L77 52" fill="none" stroke="#000000" stroke-width="8" stroke-linecap="round"/>
<path d="M123 148 L129 170" fill="none" stroke="#000000" stroke-width="8" stroke-linecap="round"/>
<path d="M30 71 L52 77" fill="none" stroke="#000000" stroke-width="8" stroke-linecap="round"/>
<path d="M148 123 L170 129" fill="none" stroke="#000000" stroke-width="8" stroke-linecap="round"/>
<path d="M30 129 L52 123" fill="none" stroke="#000000" stroke-width="8" stroke-linecap="round"/>
<path d="M148 77 L170 71" fill="none" stroke="#000000" stroke-width="8" stroke-linecap="round"/>
<path d="M71 170 L77 148" fill="none" stroke="#000000" stroke-width="8" stroke-linecap="round"/>
<path d="M123 52 L129 30" fill="none" stroke="#000000" stroke-width="8" stroke-linecap="round"/>
</svg>
