<svg version="1.1" xmlns="http://www.w3.org/2000/svg" width="200" height="200">
<path d="M0,0 L5,1 L7,4 L7,12 L6,14 L14,16 L17,21 L15,25 L50,25 L90,26 L88,22 L89,18 L92,15 L99,14 L98,11 L98,3 L101,0 L106,0 L109,3 L109,12 L108,15 L114,15 L119,20 L118,25 L117,26 L117,100 L120,103 L118,108 L114,111 L107,112 L109,115 L109,123 L105,126 L100,125 L98,122 L98,115 L99,113 L89,109 L88,103 L90,100 L84,101 L62,101 L16,100 L17,107 L13,111 L7,113 L7,123 L4,126 L-2,125 L-4,121 L-3,113 L-11,110 L-14,106 L-12,101 L-11,96 L-11,27 L-14,24 L-13,18 L-8,15 L-2,14 L-3,12 L-3,3 Z M2,3 L0,5 L0,12 L1,14 L3,14 L4,12 L4,5 Z M103,3 L102,4 L102,13 L105,14 L106,6 L105,3 Z M-1,17 L-10,20 L-11,22 L13,22 L12,19 L3,17 Z M103,17 L94,19 L92,20 L92,22 L111,22 L115,23 L114,19 Z M1,23 L-6,24 L-8,27 L-7,38 L-7,101 L-2,103 L6,103 L11,101 L11,26 L8,24 Z M96,24 L95,25 L95,101 L96,102 L106,103 L113,101 L113,26 L109,24 Z M15,29 L14,30 L14,97 L17,98 L23,97 L61,97 L91,98 L92,97 L92,31 L91,29 Z M-10,104 L-8,108 L-5,109 L7,109 L13,106 L12,104 L7,105 L-4,105 Z M115,103 L107,105 L99,105 L92,104 L94,108 L98,109 L107,109 L114,107 L116,103 Z M1,113 L0,115 L0,122 L4,122 L4,116 Z M103,113 L102,115 L102,122 L106,121 L105,114 Z " fill="#000000" transform="translate(47,38)"/>
</svg>
