<svg version="1.1" xmlns="http://www.w3.org/2000/svg" width="200" height="200">
<path d="M0,0 L5,1 L11,17 L20,49 L20,55 L18,57 L14,56 L9,41 L9,39 L-8,39 L-10,50 L-13,57 L-17,57 L-18,50 L-15,38 L-15,34 L-13,33 L-3,3 Z M0,12 L-4,26 L-6,33 L7,33 L6,25 L2,12 Z " fill="#000000" transform="translate(89,71)"/>
<path d="M0,0 L3,0 L5,4 L5,53 L3,56 L-1,56 L-3,51 L-3,10 L-2,2 Z " fill="#000000" transform="translate(38,72)"/>
<path d="M0,0 L4,1 L7,12 L11,45 L11,57 L6,58 L4,56 L2,42 L0,23 L0,16 L-2,16 L-4,23 L-12,37 L-17,38 L-22,32 L-29,19 L-33,52 L-36,57 L-40,55 L-41,49 L-36,6 L-33,1 L-29,3 L-23,12 L-16,27 L-13,23 L-3,3 Z " fill="#000000" transform="translate(156,71)"/>
</svg>
